{"title":"Malayalam Islamic Speech Rahmathulla Kasim","uid":7485680,"size":654506896,"categoryP":"video","categoryS":"other","magnet":"?xt=urn:btih:db9454ad30c92ab79f8f68b9ea323ec5de3aa830&amp;dn=Malayalam+Islamic+Speech+Rahmathulla+Kasim+&amp;tr=udp%3A%2F%2Ftracker.openbittorrent.com%3A80&amp;tr=udp%3A%2F%2Fopen.demonii.com%3A1337&amp;tr=udp%3A%2F%2Ftracker.coppersurfer.tk%3A6969&amp;tr=udp%3A%2F%2Fexodus.desync.com%3A6969","seeders":0,"leechers":1,"uploader":null,"files":2,"time":1343580881,"description":"Complete name                    : Rahmathulla_kasimi\nFormat                           : AVI\nFormat/Info                      : Audio Video Interleave\nFile size                        : 300 MiB\nDuration                         : 2h 11mn\nOverall bit rate                 : 319 Kbps\n\nVideo\nID                               : 0\nFormat                           : MPEG-4 Visual\nFormat settings, BVOP            : No\nFormat settings, QPel            : No\nFormat settings, GMC             : No warppoints\nFormat settings, Matrix          : Default (H.263)\nCodec ID                         : DX50\nCodec ID/Hint                    : DivX 5\nDuration                         : 2h 11mn\nBit rate                         : 182 Kbps\nWidth                            : 320 pixels\nHeight                           : 240 pixels\nDisplay aspect ratio             : 4:3\nFrame rate                       : 25.000 fps\nColor space                      : YUV\nChroma subsampling               : 4:2:0\nBit depth                        : 8 bits\nScan type                        : Progressive\nCompression mode                 : Lossy\nBits/(Pixel*Frame)               : 0.095\nStream size                      : 171 MiB (57%)\nTitle                            : Video \nWriting library                  : DivX 3330\n\nAudio\nID                               : 1\nFormat                           : MPEG Audio\nFormat version                   : Version 1\nFormat profile                   : Layer 3\nMode                             : Joint stereo\nCodec ID                         : 55\nCodec ID/Hint                    : MP3\nDuration                         : 2h 11mn\nBit rate mode                    : Constant\nBit rate                         : 128 Kbps\nChannel(s)                       : 2 channels\nSampling rate                    : 44.1 KHz\nCompression mode                 : Lossy\nStream size                      : 120 MiB (40%)\nAlignment                        : Split accross interleaves\nInterleave, duration             : 40 ms (1.00 video frame)\nInterleave, preload duration     : 500 ms\nTitle                            : Audio \nWriting library                  : LAME3.92\n","torrent":{"xt":"urn:btih:db9454ad30c92ab79f8f68b9ea323ec5de3aa830","amp;dn":"Malayalam+Islamic+Speech+Rahmathulla+Kasim+","amp;tr":["udp%3A%2F%2Ftracker.openbittorrent.com%3A80","udp%3A%2F%2Fopen.demonii.com%3A1337","udp%3A%2F%2Ftracker.coppersurfer.tk%3A6969","udp%3A%2F%2Fexodus.desync.com%3A6969"],"infoHash":"db9454ad30c92ab79f8f68b9ea323ec5de3aa830","infoHashBuffer":{"type":"Buffer","data":[219,148,84,173,48,201,42,183,159,143,104,185,234,50,62,197,222,58,168,48]},"announce":[],"urlList":[]}}